<svg width="80" height="80" viewBox="0 0 80 80" fill="none" xmlns="http://www.w3.org/2000/svg">
  <path opacity="0.4" d="M40.0003 73.3333C58.4098 73.3333 73.3337 58.4095 73.3337 40C73.3337 21.5905 58.4098 6.66663 40.0003 6.66663C21.5908 6.66663 6.66699 21.5905 6.66699 40C6.66699 58.4095 21.5908 73.3333 40.0003 73.3333Z" fill="#5CE5E2"/>
  <path d="M35.2668 51.9333C34.6001 51.9333 33.9668 51.6666 33.5001 51.2L24.0668 41.7666C23.1001 40.8 23.1001 39.2 24.0668 38.2333C25.0335 37.2666 26.6335 37.2666 27.6001 38.2333L35.2668 45.9L52.4001 28.7666C53.3668 27.8 54.9668 27.8 55.9335 28.7666C56.9001 29.7333 56.9001 31.3333 55.9335 32.3L37.0335 51.2C36.5668 51.6666 35.9335 51.9333 35.2668 51.9333Z" fill="#5CE5E2"/>
</svg>