<svg width="18" height="19" viewBox="0 0 18 19" fill="none" xmlns="http://www.w3.org/2000/svg">
  <path d="M13.7732 12.1518L12.7125 11.0912L13.7732 10.0305C15.2377 8.56609 15.2377 6.19172 13.7732 4.72725C12.3087 3.26279 9.93435 3.26279 8.4699 4.72725L7.40923 5.78792L6.34858 4.72725L7.40923 3.6666C9.45952 1.61634 12.7836 1.61634 14.8339 3.6666C16.8841 5.71685 16.8841 9.04099 14.8339 11.0912L13.7732 12.1518ZM11.6518 14.2732L10.5912 15.3339C8.541 17.3841 5.21685 17.3841 3.1666 15.3339C1.11634 13.2836 1.11634 9.95952 3.1666 7.90923L4.22725 6.84858L5.28791 7.90923L4.22725 8.96989C2.76279 10.4343 2.76279 12.8088 4.22725 14.2732C5.69172 15.7377 8.0661 15.7377 9.53055 14.2732L10.5912 13.2126L11.6518 14.2732ZM11.1215 6.31824L12.1822 7.37891L6.8789 12.6822L5.81824 11.6215L11.1215 6.31824Z" fill="#888888"/>
</svg>