<svg width="20" height="20" viewBox="7.5 7.5 20 20" fill="none" xmlns="http://www.w3.org/2000/svg">
  <path
    d="M19.0457 17.5L22.3999 14.1458C22.8228 13.7229 22.8228 13.0229 22.3999 12.6C21.977 12.1771 21.277 12.1771 20.8541 12.6L17.4999 15.9542L14.1457 12.6C13.7228 12.1771 13.0228 12.1771 12.5999 12.6C12.177 13.0229 12.177 13.7229 12.5999 14.1458L15.9541 17.5L12.5999 20.8542C12.177 21.2771 12.177 21.9771 12.5999 22.4C12.8187 22.6187 13.0957 22.7208 13.3728 22.7208C13.6499 22.7208 13.927 22.6187 14.1457 22.4L17.4999 19.0458L20.8541 22.4C21.0728 22.6187 21.3499 22.7208 21.627 22.7208C21.9041 22.7208 22.1812 22.6187 22.3999 22.4C22.8228 21.9771 22.8228 21.2771 22.3999 20.8542L19.0457 17.5Z"
    fill="#888888" />
</svg>