<svg width="330" height="160" viewBox="0 0 330 160" fill="none" xmlns="http://www.w3.org/2000/svg">
  <path fill-rule="evenodd" clip-rule="evenodd"
    d="M219.844 -23.492C195.222 -32.8038 159.465 -44.4761 133.052 -48.6415C126.396 -49.6911 120.004 -50.3198 114.345 -50.2356C108.969 -50.1555 102.943 -49.4318 97.9431 -46.7265C95.2767 -45.2839 92.632 -43.1293 90.742 -39.9947C88.8202 -36.8073 88.1009 -33.304 88.2364 -29.8966C88.4866 -23.6061 91.6322 -17.472 95.5259 -11.8978C104.237 0.573536 112.228 12.7992 118.552 23.8999C124.958 35.1459 129.3 44.6329 131.168 51.7495C132.483 56.7614 132.166 58.8606 131.98 59.5196C131.623 59.652 130.901 59.847 129.622 59.9314C127.093 60.0983 123.186 59.7658 117.507 58.3827C111.399 56.8954 104.829 55.2177 98.071 53.4917L98.0702 53.4915C77.8702 48.3328 55.9849 42.7437 39.7098 40.5233C34.1716 39.7678 28.8282 39.3291 24.1232 39.5025C19.7957 39.662 14.2909 40.3707 9.78428 43.3408C7.28913 44.9852 4.98097 47.4083 3.62207 50.7411C2.28373 54.0235 2.21631 57.3276 2.72382 60.2058C3.66249 65.5292 6.78145 70.6512 10.3924 75.3186C16.7428 83.527 21.0858 90.254 23.8377 95.6349C26.6545 101.143 27.4578 104.575 27.538 106.359C27.5442 106.499 27.5464 106.618 27.546 106.72C27.0349 106.896 26.0625 107.138 24.4044 107.225C18.1913 107.553 12.6252 109.413 8.28943 113.069C3.93975 116.736 1.69915 121.48 0.8924 125.976C0.109102 130.342 0.618891 134.687 1.94316 138.325C3.06729 141.414 5.70906 146.414 11.2094 148.64C16.8408 150.919 23.2535 148.201 25.5325 142.57C27.3475 138.085 25.9935 133.105 22.5227 130.112C22.5248 130.026 22.5323 129.941 22.5466 129.862C22.5483 129.852 22.5501 129.843 22.5518 129.834L22.5748 129.821C22.6535 129.776 22.7952 129.705 23.0188 129.626C23.4681 129.466 24.2742 129.263 25.5632 129.195C31.1817 128.899 37.4575 127.457 42.3874 123.18C47.767 118.512 49.8139 112.006 49.5158 105.372C49.2357 99.1377 46.9307 92.4729 43.4248 85.6177C39.854 78.6354 34.6599 70.7329 27.7929 61.8567C27.6946 61.7296 27.5991 61.605 27.5062 61.4827C30.0395 61.553 33.1194 61.828 36.736 62.3214C51.6463 64.3555 71.555 69.4373 91.3826 74.4984L91.3827 74.4984C98.4423 76.3004 105.492 78.0998 112.302 79.7581C119.197 81.4372 125.499 82.2514 131.071 81.8837C136.672 81.514 142.291 79.8856 146.752 75.9384C156.02 67.7389 154.808 55.1656 152.447 46.1663C149.844 36.2443 144.368 24.7726 137.668 13.0102C130.884 1.10251 122.479 -11.7299 113.562 -24.4958C112.552 -25.9406 111.846 -27.1136 111.353 -28.0374C112.277 -28.1459 113.379 -28.2188 114.673 -28.238C118.61 -28.2966 123.647 -27.8528 129.625 -26.9101C153.745 -23.1062 187.795 -12.092 212.062 -2.91447C217.744 -0.765453 224.093 -3.62978 226.242 -9.31211C228.391 -14.9945 225.527 -21.343 219.844 -23.492ZM132.272 59.3859C132.272 59.3861 132.267 59.39 132.255 59.3969C132.266 59.3892 132.272 59.3857 132.272 59.3859ZM27.5096 107.216C27.5094 107.217 27.5094 107.217 27.5094 107.217C27.5095 107.217 27.51 107.216 27.5107 107.213C27.5113 107.21 27.512 107.207 27.5128 107.203C27.5111 107.209 27.51 107.214 27.5096 107.216ZM22.6227 130.817C22.6226 130.817 22.6206 130.812 22.6171 130.803C22.621 130.812 22.6228 130.817 22.6227 130.817ZM365.888 51.5419C334.006 39.4917 287.763 23.9582 253.206 16.8866C244.528 15.1106 236.357 13.8194 229.198 13.2803C222.273 12.7589 215.318 12.8534 209.577 14.5085C203.671 16.2112 196.257 20.6371 195.238 30.0631C194.431 37.5233 198.343 44.6194 202.584 50.3741C212.405 63.7011 221.267 76.6725 228.035 88.3142C234.936 100.182 239.131 109.786 240.432 116.569C241.073 119.913 240.824 121.66 240.606 122.344C240.602 122.355 240.599 122.366 240.595 122.377L240.588 122.402C240.517 122.631 240.5 122.685 240.079 122.897C239.245 123.317 237.062 123.998 232.541 123.826C228.106 123.658 222.133 122.697 214.316 120.578C206.065 118.343 197.274 115.879 188.283 113.359L188.282 113.359C161.763 105.927 133.494 98.0049 112.14 93.9817C104.909 92.6193 98.1493 91.6373 92.2972 91.2908C86.7751 90.9639 80.7492 91.1005 75.7487 92.9209C73.1075 93.8824 69.9849 95.5886 67.6208 98.693C65.0942 102.011 64.231 105.878 64.5152 109.537C65.0041 115.832 68.8717 121.664 72.8612 126.496C80.1784 135.358 84.9402 142.447 87.7407 147.943C90.435 153.23 90.8332 156.109 90.8045 157.224C89.69 157.75 86.9722 158.416 81.8667 158.173C67.5232 157.49 56.0398 162.375 51.6118 172.935C49.5989 177.735 49.5668 182.833 50.9799 187.199C52.3284 191.365 55.4483 196.041 60.8915 198.215C66.5332 200.469 72.9336 197.722 75.1871 192.08C76.7548 188.156 75.9026 183.864 73.3393 180.856C74.6769 180.41 77.0272 179.967 80.8201 180.148C87.6043 180.471 94.6748 179.847 100.599 176.925C107.254 173.642 111.869 167.682 112.679 159.669C113.392 152.617 111.03 145.189 107.342 137.953C103.644 130.696 98.0086 122.472 90.4284 113.221C90.6138 113.231 90.8033 113.241 90.9969 113.252C95.5403 113.521 101.283 114.323 108.067 115.601C128.392 119.431 155.175 126.935 181.416 134.288L181.417 134.288L181.42 134.289C190.636 136.871 199.784 139.434 208.562 141.813C217.336 144.19 225.048 145.557 231.706 145.81C238.277 146.06 244.593 145.256 249.975 142.545C255.737 139.643 259.69 134.911 261.566 129.029C263.313 123.551 263.059 117.751 262.038 112.425C260.013 101.867 254.251 89.6337 247.054 77.2562C239.726 64.6526 230.352 50.9702 220.294 37.3222C219.68 36.4896 219.186 35.7623 218.789 35.1342C220.904 34.9516 223.789 34.9353 227.546 35.2181C233.447 35.6625 240.631 36.769 248.796 38.4399C281.611 45.1554 326.552 60.1935 358.11 72.121C363.793 74.2689 370.141 71.4033 372.288 65.7205C374.436 60.0377 371.571 53.6898 365.888 51.5419ZM71.7707 181.664C71.7695 181.664 71.778 181.652 71.7999 181.63C71.7829 181.654 71.7719 181.665 71.7707 181.664ZM83.2593 113.6C83.2592 113.599 83.2637 113.598 83.2733 113.594C83.2642 113.598 83.2594 113.6 83.2593 113.6Z"
    fill="url(#paint0_linear_106_7775)" />
  <defs>
    <linearGradient id="paint0_linear_106_7775" x1="93.5007" y1="-76.7784" x2="93.5007" y2="178.114"
      gradientUnits="userSpaceOnUse">
      <stop stop-color="#4C4C4C" />
      <stop offset="1" stop-color="#4C4C4C" stop-opacity="0" />
    </linearGradient>
  </defs>
</svg>