<svg width="30" height="30" viewBox="0 0 30 30" fill="none" xmlns="http://www.w3.org/2000/svg">
  <path
    d="M26.25 9.6875H3.75C3.2375 9.6875 2.8125 9.2625 2.8125 8.75C2.8125 8.2375 3.2375 7.8125 3.75 7.8125H26.25C26.7625 7.8125 27.1875 8.2375 27.1875 8.75C27.1875 9.2625 26.7625 9.6875 26.25 9.6875Z"
    fill="white" />
  <path
    d="M26.25 15.9375H3.75C3.2375 15.9375 2.8125 15.5125 2.8125 15C2.8125 14.4875 3.2375 14.0625 3.75 14.0625H26.25C26.7625 14.0625 27.1875 14.4875 27.1875 15C27.1875 15.5125 26.7625 15.9375 26.25 15.9375Z"
    fill="white" />
  <path
    d="M26.25 22.1875H3.75C3.2375 22.1875 2.8125 21.7625 2.8125 21.25C2.8125 20.7375 3.2375 20.3125 3.75 20.3125H26.25C26.7625 20.3125 27.1875 20.7375 27.1875 21.25C27.1875 21.7625 26.7625 22.1875 26.25 22.1875Z"
    fill="white" />
</svg>