<svg width="34" height="34" viewBox="0 0 34 34" fill="none" xmlns="http://www.w3.org/2000/svg">
  <path opacity="0.4"
    d="M31.1668 11.0641V19.6916L28.8577 17.7083C27.7527 16.7591 25.9677 16.7591 24.8627 17.7083L18.9693 22.7658C17.8643 23.7149 16.0793 23.7149 14.9743 22.7658L14.4927 22.3691C13.4868 21.4908 11.886 21.4058 10.7527 22.1708L3.78266 26.8458L3.62683 26.9591C3.10266 25.8258 2.8335 24.4799 2.8335 22.9358V11.0641C2.8335 5.90742 5.90766 2.83325 11.0643 2.83325H22.936C28.0927 2.83325 31.1668 5.90742 31.1668 11.0641Z"
    fill="#888888" />
  <path
    d="M12.7501 14.705C14.6122 14.705 16.1218 13.1955 16.1218 11.3333C16.1218 9.47122 14.6122 7.96167 12.7501 7.96167C10.888 7.96167 9.37842 9.47122 9.37842 11.3333C9.37842 13.1955 10.888 14.705 12.7501 14.705Z"
    fill="#888888" />
  <path
    d="M31.1665 19.6915V22.9357C31.1665 28.0924 28.0923 31.1665 22.9356 31.1665H11.064C7.45146 31.1665 4.8448 29.6507 3.62646 26.959L3.7823 26.8457L10.7523 22.1707C11.8856 21.4057 13.4865 21.4907 14.4923 22.369L14.974 22.7657C16.079 23.7149 17.864 23.7149 18.969 22.7657L24.8623 17.7082C25.9673 16.759 27.7523 16.759 28.8573 17.7082L31.1665 19.6915Z"
    fill="#888888" />
</svg>