<svg width="20" height="20" viewBox="0 0 20 20" fill="none" xmlns="http://www.w3.org/2000/svg">
  <g clip-path="url(#clip0_52_425)">
    <path d="M10 1.66663C5.40002 1.66663 1.66669 5.39996 1.66669 9.99996C1.66669 14.6 5.40002 18.3333 10 18.3333C14.6 18.3333 18.3334 14.6 18.3334 9.99996C18.3334 5.39996 14.6 1.66663 10 1.66663ZM10.8334 4.41663L11.9584 3.62496C13.475 4.09163 14.7667 5.09163 15.6084 6.40829L15.2834 7.52496L14.1584 7.90829L10.8334 5.58329V4.41663ZM8.04169 3.62496L9.16669 4.41663V5.58329L5.84169 7.90829L4.71669 7.52496L4.39169 6.40829C5.23335 5.09996 6.52502 4.09996 8.04169 3.62496ZM5.90002 14.2583L4.95002 14.3416C3.94169 13.175 3.33335 11.6583 3.33335 9.99996C3.33335 9.89996 3.34169 9.80829 3.35002 9.70829L4.18335 9.09996L5.33335 9.49996L6.55002 13.1166L5.90002 14.2583ZM12.0834 16.325C11.425 16.5416 10.725 16.6666 10 16.6666C9.27502 16.6666 8.57502 16.5416 7.91669 16.325L7.34169 15.0833L7.87502 14.1666H12.1334L12.6667 15.0916L12.0834 16.325ZM11.8917 12.5H8.10835L6.98335 9.14996L10 7.03329L13.025 9.14996L11.8917 12.5ZM15.05 14.3416L14.1 14.2583L13.4417 13.1166L14.6584 9.49996L15.8167 9.10829L16.65 9.71663C16.6584 9.80829 16.6667 9.89996 16.6667 9.99996C16.6667 11.6583 16.0584 13.175 15.05 14.3416Z" fill="#888888"/>
  </g>
  <defs>
    <clipPath id="clip0_52_425">
      <rect width="20" height="20" fill="white"/>
    </clipPath>
  </defs>
</svg>