<svg width="20" height="20" viewBox="0 0 20 20" fill="none" xmlns="http://www.w3.org/2000/svg">
  <g clip-path="url(#clip0_52_648)">
    <path d="M16.2667 2.07501C14.3167 0.125005 10.75 0.516672 8.30834 2.95834C6.97501 4.29167 6.20834 6.18334 6.19167 7.50834C6.17501 8.825 6.40834 10.75 5.06667 12.0917L2.11667 15.0333C1.79167 15.3583 1.79167 15.8833 2.11667 16.2167C2.44167 16.5417 2.96667 16.5417 3.30001 16.2167L6.24167 13.2667C7.58334 11.925 9.50834 12.1583 10.825 12.1417C12.1417 12.125 14.0417 11.3583 15.375 10.025C17.8167 7.59167 18.2167 4.025 16.2667 2.07501ZM8.60001 9.73334C7.32501 8.45834 7.72501 5.89167 9.48334 4.13334C11.2417 2.37501 13.8 1.97501 15.0833 3.25001C16.3583 4.52501 15.9583 7.09167 14.2 8.85C12.4417 10.6083 9.88334 11.0083 8.60001 9.73334Z" fill="#888888"/>
    <path d="M15 14.1667C15.4417 14.1667 15.8667 14.3417 16.175 14.6583C16.825 15.3083 16.825 16.3667 16.175 17.0167C15.8667 17.325 15.4417 17.5 15 17.5C14.5584 17.5 14.1334 17.325 13.825 17.0083C13.175 16.3583 13.175 15.3 13.825 14.65C14.1334 14.3417 14.5584 14.1667 15 14.1667ZM15 12.5C14.15 12.5 13.2917 12.825 12.6417 13.475C11.3417 14.775 11.3417 16.8833 12.6417 18.1917C13.2917 18.8417 14.15 19.1667 15 19.1667C15.85 19.1667 16.7084 18.8417 17.3584 18.1917C18.6584 16.8917 18.6584 14.7833 17.3584 13.475C16.7084 12.825 15.85 12.5 15 12.5Z" fill="#888888"/>
  </g>
  <defs>
    <clipPath id="clip0_52_648">
      <rect width="20" height="20" fill="white"/>
    </clipPath>
  </defs>
</svg>