<svg width="20" height="20" viewBox="0 0 20 20" fill="none" xmlns="http://www.w3.org/2000/svg">
  <g clip-path="url(#clip0_52_559)">
    <path d="M14.2416 9.16667H18.2916C18.1583 7.825 17.7 6.575 17.0083 5.5C15.5666 6.19167 14.5166 7.54167 14.2416 9.16667Z" fill="#888888"/>
    <path d="M5.75831 9.16667C5.48331 7.54167 4.43331 6.19167 2.99165 5.5C2.29998 6.575 1.84165 7.825 1.70831 9.16667H5.75831Z" fill="#888888"/>
    <path d="M12.5583 9.16671C12.825 7.00837 14.125 5.17504 15.9416 4.16671C14.6083 2.80837 12.825 1.90837 10.8333 1.70837V9.16671H12.5583Z" fill="#888888"/>
    <path d="M7.44162 9.16671H9.16662V1.70837C7.17495 1.90837 5.38329 2.80837 4.05829 4.16671C5.87496 5.17504 7.17496 7.00837 7.44162 9.16671Z" fill="#888888"/>
    <path d="M12.5583 10.8334H10.8333V18.2917C12.825 18.0917 14.6166 17.1917 15.9416 15.8334C14.125 14.825 12.825 12.9917 12.5583 10.8334Z" fill="#888888"/>
    <path d="M2.99165 14.5C4.42498 13.8084 5.48331 12.45 5.75831 10.8334H1.70831C1.84165 12.175 2.29998 13.425 2.99165 14.5Z" fill="#888888"/>
    <path d="M14.2416 10.8334C14.5166 12.4584 15.5666 13.8084 17.0083 14.5C17.7 13.425 18.1583 12.175 18.2916 10.8334H14.2416Z" fill="#888888"/>
    <path d="M7.44162 10.8334C7.17496 12.9917 5.87496 14.825 4.05829 15.8334C5.39162 17.1917 7.17495 18.0917 9.16662 18.2917V10.8334H7.44162Z" fill="#888888"/>
  </g>
  <defs>
    <clipPath id="clip0_52_559">
      <rect width="20" height="20" fill="white"/>
    </clipPath>
  </defs>
</svg>