<svg width="48" height="48" viewBox="0 0 48 48" fill="none" xmlns="http://www.w3.org/2000/svg">
  <path d="M19.4148 1.56696C23.521 1.56696 30.6094 1.79819 33.7897 2.4599C36.4491 3.01319 38.1459 5.54448 38.3678 8.1432C35.1857 7.0789 31.6003 6.93333 27.7996 6.93333C23.7423 6.93333 19.7858 7.25033 16.9097 7.48077C16.1629 7.54059 15.4888 7.59459 14.9048 7.6357C13.7243 7.71878 12.8346 8.74317 12.9177 9.92369C13.0008 11.1043 14.0251 11.9939 15.2057 11.9109C15.8455 11.8658 16.5614 11.8086 17.3395 11.7464C20.2136 11.5166 23.9351 11.219 27.7996 11.219C32.6087 11.219 36.0127 11.5105 38.6475 12.9008C40.9262 14.2681 42.6182 16.4748 43.2202 19.0738C43.3221 24.2626 43.6821 31.463 43.3221 37.3615C42.5232 41.5896 38.9859 44.8125 34.7469 45.4125L34.1864 45.492C30.81 45.9717 27.562 46.4328 22.7316 46.4328C17.9014 46.4328 14.6535 45.9717 11.2771 45.492L10.717 45.4125C6.42936 44.8056 2.94117 41.5971 2.16457 37.4856L2.12841 37.2943C1.64656 34.7458 1.20201 32.3881 1.20201 28.0021C1.20201 27.3526 1.21172 26.7464 1.23 26.176C1.21178 25.4255 1.20201 24.6216 1.20201 23.7521C1.20201 19.9085 1.50318 16.1187 1.99258 12.3101C2.56852 7.8253 5.25933 3.66507 9.26109 2.83191C12.6257 2.12992 15.9643 1.56696 19.4148 1.56696Z" fill="#5CE5E2"/>
  <path fill-rule="evenodd" clip-rule="evenodd" d="M38.6462 11.9296C38.6397 10.4587 38.6006 9.60998 38.3678 8.1432C35.1857 7.0789 31.6004 6.93333 27.7997 6.93333C23.7424 6.93333 19.7859 7.25033 16.9099 7.48077C16.1629 7.5406 15.4889 7.5946 14.9049 7.6357C13.7244 7.71878 12.8347 8.74317 12.9178 9.92369C13.0008 11.1043 14.0252 11.9939 15.2057 11.9109C15.8456 11.8658 16.5615 11.8086 17.3396 11.7464C20.2137 11.5166 23.9352 11.219 27.7997 11.219C32.6088 11.219 36.0127 11.5105 38.6475 12.9008C38.9256 13.0677 39.1951 13.2472 39.455 13.4384C38.9702 13.0815 38.6489 12.5317 38.6462 11.9296Z" fill="#178C8A"/>
  <path d="M42.0981 34.357H36.1413C32.7513 34.357 30.0034 31.6091 30.0034 28.2193C30.0034 24.8295 32.7513 22.0815 36.1413 22.0815H42.0981C44.4881 22.0815 46.4256 24.0189 46.4256 26.4088V30.0298C46.4256 32.4197 44.4881 34.357 42.0981 34.357Z" fill="#178C8A"/>
</svg>