<svg width="30" height="30" viewBox="0 0 30 30" fill="none" xmlns="http://www.w3.org/2000/svg">
  <g clip-path="url(#clip0_32_39)">
    <path
      d="M24.4 3.11251C21.475 0.187508 16.125 0.775008 12.4625 4.43751C10.4625 6.43751 9.31251 9.27501 9.28751 11.2625C9.26251 13.2375 9.61251 16.125 7.60001 18.1375L3.17501 22.55C2.68751 23.0375 2.68751 23.825 3.17501 24.325C3.66251 24.8125 4.45001 24.8125 4.95001 24.325L9.36251 19.9C11.375 17.8875 14.2625 18.2375 16.2375 18.2125C18.2125 18.1875 21.0625 17.0375 23.0625 15.0375C26.725 11.3875 27.325 6.03751 24.4 3.11251ZM12.9 14.6C10.9875 12.6875 11.5875 8.83751 14.225 6.20001C16.8625 3.56251 20.7 2.96251 22.625 4.87501C24.5375 6.78751 23.9375 10.6375 21.3 13.275C18.6625 15.9125 14.825 16.5125 12.9 14.6Z"
      fill="#FF6685" />
    <path
      d="M22.5 21.25C23.1625 21.25 23.8 21.5125 24.2625 21.9875C25.2375 22.9625 25.2375 24.55 24.2625 25.525C23.8 25.9875 23.1625 26.25 22.5 26.25C21.8375 26.25 21.2 25.9875 20.7375 25.5125C19.7625 24.5375 19.7625 22.95 20.7375 21.975C21.2 21.5125 21.8375 21.25 22.5 21.25ZM22.5 18.75C21.225 18.75 19.9375 19.2375 18.9625 20.2125C17.0125 22.1625 17.0125 25.325 18.9625 27.2875C19.9375 28.2625 21.225 28.75 22.5 28.75C23.775 28.75 25.0625 28.2625 26.0375 27.2875C27.9875 25.3375 27.9875 22.175 26.0375 20.2125C25.0625 19.2375 23.775 18.75 22.5 18.75Z"
      fill="#FF6685" />
  </g>
  <defs>
    <clipPath id="clip0_32_39">
      <rect width="30" height="30" fill="white" />
    </clipPath>
  </defs>
</svg>