<svg width="30" height="30" viewBox="0 0 30 30" fill="none" xmlns="http://www.w3.org/2000/svg">
  <g clip-path="url(#clip0_32_46)">
    <path d="M21.3625 13.75H27.4375C27.2375 11.7375 26.55 9.8625 25.5125 8.25C23.35 9.2875 21.775 11.3125 21.3625 13.75Z" fill="#5CE5E2"/>
    <path d="M8.6375 13.75C8.225 11.3125 6.65 9.2875 4.4875 8.25C3.45 9.8625 2.7625 11.7375 2.5625 13.75H8.6375Z" fill="#5CE5E2"/>
    <path d="M18.8375 13.75C19.2375 10.5125 21.1875 7.7625 23.9125 6.25C21.9125 4.2125 19.2375 2.8625 16.25 2.5625V13.75H18.8375Z" fill="#5CE5E2"/>
    <path d="M11.1625 13.75H13.75V2.5625C10.7625 2.8625 8.07499 4.2125 6.08749 6.25C8.81249 7.7625 10.7625 10.5125 11.1625 13.75Z" fill="#5CE5E2"/>
    <path d="M18.8375 16.25H16.25V27.4375C19.2375 27.1375 21.925 25.7875 23.9125 23.75C21.1875 22.2375 19.2375 19.4875 18.8375 16.25Z" fill="#5CE5E2"/>
    <path d="M4.4875 21.75C6.6375 20.7125 8.225 18.675 8.6375 16.25H2.5625C2.7625 18.2625 3.45 20.1375 4.4875 21.75Z" fill="#5CE5E2"/>
    <path d="M21.3625 16.25C21.775 18.6875 23.35 20.7125 25.5125 21.75C26.55 20.1375 27.2375 18.2625 27.4375 16.25H21.3625Z" fill="#5CE5E2"/>
    <path d="M11.1625 16.25C10.7625 19.4875 8.81249 22.2375 6.08749 23.75C8.08749 25.7875 10.7625 27.1375 13.75 27.4375V16.25H11.1625Z" fill="#5CE5E2"/>
  </g>
  <defs>
    <clipPath id="clip0_32_46">
      <rect width="30" height="30" fill="white"/>
    </clipPath>
  </defs>
</svg>