<svg width="30" height="30" viewBox="0 0 30 30" fill="none" xmlns="http://www.w3.org/2000/svg">
  <g clip-path="url(#clip0_31_295)">
    <path
      d="M15 2.5C8.1 2.5 2.5 8.1 2.5 15C2.5 21.9 8.1 27.5 15 27.5C21.9 27.5 27.5 21.9 27.5 15C27.5 8.1 21.9 2.5 15 2.5ZM16.25 6.625L17.9375 5.4375C20.2125 6.1375 22.15 7.6375 23.4125 9.6125L22.925 11.2875L21.2375 11.8625L16.25 8.375V6.625ZM12.0625 5.4375L13.75 6.625V8.375L8.7625 11.8625L7.075 11.2875L6.5875 9.6125C7.85 7.65 9.7875 6.15 12.0625 5.4375ZM8.85 21.3875L7.425 21.5125C5.9125 19.7625 5 17.4875 5 15C5 14.85 5.0125 14.7125 5.025 14.5625L6.275 13.65L8 14.25L9.825 19.675L8.85 21.3875ZM18.125 24.4875C17.1375 24.8125 16.0875 25 15 25C13.9125 25 12.8625 24.8125 11.875 24.4875L11.0125 22.625L11.8125 21.25H18.2L19 22.6375L18.125 24.4875ZM17.8375 18.75H12.1625L10.475 13.725L15 10.55L19.5375 13.725L17.8375 18.75ZM22.575 21.5125L21.15 21.3875L20.1625 19.675L21.9875 14.25L23.725 13.6625L24.975 14.575C24.9875 14.7125 25 14.85 25 15C25 17.4875 24.0875 19.7625 22.575 21.5125Z"
      fill="#FFEA7F" />
  </g>
  <defs>
    <clipPath id="clip0_31_295">
      <rect width="30" height="30" fill="white" />
    </clipPath>
  </defs>
</svg>