<svg width="24" height="24" viewBox="0 0 24 24" fill="none" xmlns="http://www.w3.org/2000/svg">
  <g clip-path="url(#clip0_19_150)">
    <path fill-rule="evenodd" clip-rule="evenodd"
      d="M12.0001 3.40306C11.1331 3.40306 9.57114 3.44808 7.72014 3.58285V1.56907C7.72014 0.858991 7.1445 0.283356 6.43442 0.283356C5.72433 0.283356 5.14871 0.858991 5.14871 1.56907V3.83573C2.72709 4.29757 0.86973 6.29331 0.656051 8.80654C0.482219 10.8511 0.428558 12.7121 0.428558 13.5623C0.428558 14.4125 0.4822 16.2713 0.655955 18.3144C0.88384 20.9938 2.98 23.0851 5.63634 23.3563C8.36171 23.6345 10.8223 23.7177 12 23.7177C13.1778 23.7177 15.6384 23.6345 18.3638 23.3563C21.02 23.0851 23.1163 20.9938 23.3441 18.3142C23.5178 16.2713 23.5714 14.4124 23.5714 13.5623C23.5714 12.7121 23.5178 10.8511 23.3439 8.80657C23.13 6.28921 21.2669 4.29106 18.8395 3.83348V1.56907C18.8395 0.858991 18.264 0.283356 17.5538 0.283356C16.8438 0.283356 16.2681 0.858991 16.2681 1.56907V3.582C14.4223 3.44789 12.8651 3.40306 12.0001 3.40306Z"
      fill="#5CE5E2" />
    <path fill-rule="evenodd" clip-rule="evenodd"
      d="M7.28655 10.559C5.86638 10.559 4.71512 11.7103 4.71512 13.1304V14.8447C4.71512 16.2649 5.86638 17.4161 7.28655 17.4161H9.00083C10.421 17.4161 11.5723 16.2649 11.5723 14.8447V13.1304C11.5723 11.7103 10.421 10.559 9.00083 10.559H7.28655Z"
      fill="#178C8A" />
  </g>
  <defs>
    <clipPath id="clip0_19_150">
      <rect width="24" height="24" fill="white" />
    </clipPath>
  </defs>
</svg>