<svg width="48" height="48" viewBox="0 0 48 48" fill="none" xmlns="http://www.w3.org/2000/svg">
  <g clip-path="url(#clip0_37_32)">
    <path fill-rule="evenodd" clip-rule="evenodd" d="M12.4587 0C8.67163 0 5.60158 3.07005 5.60158 6.85714C5.60158 10.6442 8.67163 13.7143 12.4587 13.7143C16.2458 13.7143 19.3159 10.6442 19.3159 6.85714C19.3159 3.07005 16.2458 0 12.4587 0ZM12.3166 17.1429C6.44995 17.1429 3.91514 21.6388 3.3797 23.8996L3.3741 23.9249C3.16975 24.9213 2.69362 28.8932 2.31516 32.0505L2.23965 32.6802C2.12817 33.6092 2.24259 34.4071 2.56521 35.0685C2.8894 35.7333 3.39214 36.1951 3.94572 36.5009C4.70265 36.9192 5.56891 37.0563 6.30801 37.0581C6.47237 37.9862 6.69705 39.1704 6.94589 40.3272C7.26447 41.8087 7.63963 43.3293 7.99551 44.1833C8.90268 46.3605 11.0203 48 13.1991 48C15.3145 48 17.5952 46.9118 19.2521 43.7722C19.6132 43.0882 19.9037 42.1001 20.1447 41.0181C20.39 39.9168 20.5989 38.6469 20.7735 37.3557C21.1019 34.9272 21.3156 31.0164 21.4186 29.1317L21.4369 28.7975L21.4616 24.2109H26.6017L26.5631 28.7429C26.5629 28.7611 26.5633 28.7793 26.5644 28.7974L26.5837 29.1518C26.687 31.0442 26.8994 34.9358 27.2266 37.3557C27.4013 38.6469 27.6102 39.9168 27.8554 41.0181C28.0965 42.1001 28.387 43.0882 28.7481 43.7722C30.4049 46.9118 32.6857 48 34.801 48C36.9799 48 39.0974 46.3605 40.0046 44.1833C40.3605 43.3293 40.7356 41.8087 41.0544 40.3272C41.303 39.1704 41.5279 37.9862 41.6921 37.0581C42.4313 37.0563 43.2974 36.9192 44.0544 36.5009C44.6081 36.1951 45.1108 35.7333 45.4351 35.0685C45.7574 34.4071 45.8719 33.6092 45.7605 32.6802L45.6809 32.018C45.3034 28.8661 44.83 24.9178 44.6263 23.9248L44.6205 23.8996C44.0849 21.6388 41.5502 17.1429 35.6836 17.1429H12.3166ZM28.7578 6.85714C28.7578 3.07005 31.8279 0 35.615 0C39.4022 0 42.4721 3.07005 42.4721 6.85714C42.4721 10.6442 39.4022 13.7143 35.615 13.7143C31.8279 13.7143 28.7578 10.6442 28.7578 6.85714Z" fill="#5CE5E2"/>
  </g>
  <defs>
    <clipPath id="clip0_37_32">
      <rect width="48" height="48" fill="white"/>
    </clipPath>
  </defs>
</svg>