<svg width="40" height="40" viewBox="0 0 40 40" fill="none" xmlns="http://www.w3.org/2000/svg">
  <path
    d="M26.9833 3.33333H13.0167C6.95 3.33333 3.33333 6.94999 3.33333 13.0167V26.9667C3.33333 33.05 6.95 36.6667 13.0167 36.6667H26.9667C33.0333 36.6667 36.65 33.05 36.65 26.9833V13.0167C36.6667 6.94999 33.05 3.33333 26.9833 3.33333Z"
    fill="black" />
  <path
    d="M26.125 23.4567C25.9741 23.3059 25.8788 23.0994 25.8788 22.8612L25.8788 14.0623L17.08 14.0623C16.6194 14.0623 16.2382 13.6811 16.2382 13.2205C16.2382 12.76 16.6194 12.3788 17.08 12.3788L26.7206 12.3788C27.1812 12.3788 27.5623 12.76 27.5623 13.2205L27.5623 22.8612C27.5623 23.3217 27.1812 23.7029 26.7206 23.7029C26.4903 23.7109 26.2759 23.6076 26.125 23.4567Z"
    fill="#5CE5E2" stroke="#5CE5E2" />
  <path
    d="M12.625 27.3162C12.2994 26.9906 12.2994 26.4506 12.625 26.125L25.99 12.76C26.3156 12.4344 26.8556 12.4344 27.1812 12.76C27.5068 13.0855 27.5068 13.6255 27.1812 13.9511L13.8161 27.3162C13.4906 27.6418 12.9506 27.6418 12.625 27.3162Z"
    fill="#5CE5E2" stroke="#5CE5E2" />
</svg>