<svg width="8" height="16" viewBox="0 0 8 16" fill="none" xmlns="http://www.w3.org/2000/svg">
<path d="M1.42498 15.225C1.26665 15.225 1.10831 15.1667 0.983313 15.0417C0.741646 14.8 0.741646 14.4 0.983313 14.1583L6.41665 8.72499C6.81665 8.32499 6.81665 7.67499 6.41665 7.27499L0.983313 1.84165C0.741646 1.59999 0.741646 1.19999 0.983313 0.958319C1.22498 0.716652 1.62498 0.716652 1.86665 0.958319L7.29998 6.39165C7.72498 6.81665 7.96665 7.39165 7.96665 7.99999C7.96665 8.60832 7.73331 9.18332 7.29998 9.60832L1.86665 15.0417C1.74165 15.1583 1.58331 15.225 1.42498 15.225Z" fill="white"/>
</svg>
