<svg width="8" height="16" viewBox="0 0 8 16" fill="none" xmlns="http://www.w3.org/2000/svg">
<path d="M6.57499 15.225C6.73332 15.225 6.89166 15.1667 7.01666 15.0417C7.25832 14.8 7.25832 14.4 7.01666 14.1583L1.58332 8.72499C1.18332 8.32499 1.18332 7.67499 1.58332 7.27499L7.01666 1.84165C7.25832 1.59999 7.25832 1.19999 7.01666 0.958319C6.77499 0.716652 6.37499 0.716652 6.13332 0.958319L0.699989 6.39165C0.274989 6.81665 0.0333229 7.39165 0.0333229 7.99999C0.0333229 8.60832 0.266656 9.18332 0.699989 9.60832L6.13332 15.0417C6.25832 15.1583 6.41666 15.225 6.57499 15.225Z" fill="white"/>
</svg>
