<svg width="48" height="48" viewBox="0 0 48 48" fill="none" xmlns="http://www.w3.org/2000/svg">
  <g clip-path="url(#clip0_38_52)">
    <path fill-rule="evenodd" clip-rule="evenodd" d="M39.9065 32.6342C39.5647 33.2664 39.9867 34.1187 40.7057 34.1187H41.6064C44.2807 34.1187 46.524 32.6805 47.4977 30.6513C47.9887 29.6279 48.157 28.438 47.8347 27.2595C47.5097 26.0714 46.7263 25.0404 45.5712 24.2709C44.0798 23.2777 42.4553 22.4687 40.7304 21.8761C39.8952 21.5892 39.252 22.757 39.7145 23.5093C40.1544 24.2252 40.5003 25.0083 40.7314 25.853C41.3527 28.1251 41.0085 30.3643 40.1242 32.2073C40.055 32.3517 39.9823 32.494 39.9065 32.6342ZM32.732 15.5928C32.3827 16.1276 32.6493 16.8707 33.2867 16.9104C33.4725 16.9219 33.6598 16.9278 33.8486 16.9278C38.5824 16.9278 42.42 13.237 42.42 8.68406C42.42 4.13116 38.5824 0.440292 33.8486 0.440292C33.7125 0.440292 33.5771 0.443344 33.4425 0.449385C32.8049 0.47799 32.525 1.21543 32.8638 1.75633C34.1013 3.73211 34.8168 6.0683 34.8168 8.57157C34.8168 11.1624 34.0503 13.5743 32.732 15.5928Z" fill="#5CE5E2"/>
    <path fill-rule="evenodd" clip-rule="evenodd" d="M21.9594 0C17.2255 0 13.388 3.83757 13.388 8.57143C13.388 13.3053 17.2255 17.1429 21.9594 17.1429C26.6933 17.1429 30.5308 13.3053 30.5308 8.57143C30.5308 3.83757 26.6933 0 21.9594 0ZM9.62946 23.9707H14.0964C14.1877 23.9707 14.2789 23.9728 14.37 23.977C15.3828 24.0232 16.3496 24.0842 17.2761 24.147C22.4142 24.495 27.0505 28.3202 27.7752 33.855H30.2864C33.0192 33.855 35.2845 32.3869 36.2602 30.3535C36.7515 29.3293 36.9161 28.148 36.5976 26.9833C36.2767 25.8105 35.5001 24.7776 34.3269 23.9962C30.7852 21.6373 26.5304 20.2625 21.959 20.2625C17.4041 20.2625 13.1636 21.6274 9.62946 23.9707Z" fill="#5CE5E2"/>
    <path fill-rule="evenodd" clip-rule="evenodd" d="M9.86942 28.2564C9.84336 28.2564 9.8173 28.257 9.79128 28.2582C8.82466 28.3023 7.89387 28.361 6.97934 28.4229C3.64519 28.6487 0.768669 31.1572 0.416376 34.6155C0.161918 37.1136 -0.0127746 39.8935 0.000732103 42.4389C0.0104169 44.2635 0.855525 45.9833 2.17287 47.0187C3.56002 48.1087 5.54671 48.4529 7.34616 47.2066C8.92951 46.1102 9.88073 44.5865 10.3742 43.1215H13.8543C14.3479 44.5865 15.2991 46.1102 16.8824 47.2066C18.6819 48.4529 20.6686 48.1087 22.0557 47.0187C23.3731 45.9833 24.2182 44.2635 24.2278 42.4389C24.2413 39.8935 24.0667 37.1136 23.8122 34.6155C23.4599 31.1572 20.5834 28.6487 17.2492 28.4229C16.3347 28.361 15.4039 28.3023 14.4373 28.2582C14.4113 28.257 14.3852 28.2564 14.3591 28.2564H9.86942Z" fill="#178C8A"/>
  </g>
  <defs>
    <clipPath id="clip0_38_52">
      <rect width="48" height="48" fill="white"/>
    </clipPath>
  </defs>
</svg>