<svg width="48" height="48" viewBox="0 0 48 48" fill="none" xmlns="http://www.w3.org/2000/svg">
  <path fill-rule="evenodd" clip-rule="evenodd" d="M10.2341 10.2857C8.75702 10.2857 7.34328 10.5186 6.07643 10.7584C3.71243 11.2057 1.92903 13.2185 1.76939 15.6191L1.74473 15.9892C1.57528 18.5305 1.39537 21.2288 1.39537 24C1.39537 26.7712 1.57528 29.4695 1.74473 32.0108L1.76939 32.3809C1.92904 34.7815 3.71243 36.7944 6.07643 37.2415C7.34328 37.4815 8.75702 37.7143 10.2341 37.7143C11.7111 37.7143 13.1248 37.4815 14.3917 37.2415C16.7557 36.7944 18.5391 34.7815 18.6987 32.3809L18.7234 32.0108C18.7598 31.4656 18.7966 30.9132 18.832 30.3545C22.3635 28.8625 26.3508 28.8617 29.8827 30.3522C29.9173 30.9109 29.9533 31.4633 29.9888 32.0086L30.0133 32.3845C30.1689 34.7798 31.9418 36.7961 34.3018 37.2511C35.5251 37.487 36.8918 37.7143 38.3211 37.7143C39.7505 37.7143 41.1175 37.487 42.3408 37.2511C44.7007 36.7961 46.4736 34.7798 46.6293 32.3845L46.6536 32.0087C46.8192 29.4672 46.9947 26.7698 46.9947 24C46.9947 21.2302 46.8192 18.5332 46.6536 15.9917L46.6293 15.6155C46.4736 13.2204 44.7007 11.2039 42.3408 10.7488C41.1175 10.513 39.7505 10.2857 38.3211 10.2857C36.8918 10.2857 35.5251 10.513 34.3018 10.7488C31.9418 11.2039 30.1689 13.2204 30.0133 15.6155L29.9888 15.9914C29.9533 16.5366 29.9173 17.0891 29.8827 17.6478C26.3508 19.1383 22.3635 19.1375 18.832 17.6456C18.7966 17.0868 18.7598 16.5344 18.7234 15.9892L18.6987 15.6191C18.5391 13.2185 16.7557 11.2057 14.3917 10.7584C13.1249 10.5186 11.7111 10.2857 10.2341 10.2857Z" fill="#5CE5E2"/>
</svg>